<svg xmlns="http://www.w3.org/2000/svg" viewBox="5 -42 256 256" xml:space="preserve"><path d="M5-42h256v256H5z"/><path fill="#fff" d="M121.104 141.946c-1.838-2.163-3.834-3.89-4.886-6.07-7.832-16.227-35.242-16.872-44.451-.272-4.757 8.575-12.653 12.493-22.444 12.3-11.252-.222-21.15-8.413-23.67-19.415-2.577-11.245 2.83-23.19 12.827-28.34 10.276-5.293 22.384-3.123 30.204 5.209 3.045 3.244 6.068 6.748 9.768 9.076 4.204 2.646 9.242 3.095 13.698-.008 3.663-2.551 5.607-6.228 4.761-10.783-.383-2.065-1.323-4.1-2.349-5.961-7.62-13.831-15.584-27.48-22.935-41.45-7.95-15.112.764-33.493 16.966-36.663 11.218-2.195 21.533 2.223 27.187 12.245 14.621 25.918 29.15 51.89 43.487 77.966 6.441 11.714 4.144 23.99-5.367 32.058-9.617 8.157-21.817 8.282-32.796.108m35.962-76.981c-2.159-3.974-4.306-7.547-6.097-11.29-5.994-12.531-1.368-27.11 10.53-33.568 11.88-6.448 26.98-2.397 33.825 9.668a6411 6411 0 0 1 43.974 78.81c7.057 12.854 2.3 27.842-10.454 34.659-12.205 6.523-26.693 2.08-33.807-10.538-12.654-22.442-25.204-44.943-37.971-67.741m5.712-22.42c-1.768 6.133.091 11.162 4.944 15.03 4.375 3.488 10.728 3.736 15.449.938 5.313-3.149 7.948-9.33 6.567-15.407-1.215-5.349-5.907-9.613-11.43-10.386-6.999-.98-11.796 1.847-15.53 9.825"/><path d="M162.864 42.159c3.648-7.592 8.445-10.419 15.444-9.439 5.523.773 10.215 5.037 11.43 10.386 1.38 6.077-1.254 12.258-6.567 15.407-4.721 2.798-11.074 2.55-15.45-.938-4.852-3.868-6.71-8.897-4.857-15.416"/></svg>